# xmcd
#
# Track frame offsets: 
#        150
#        16734
#        38294
#        59741
#        80723
#        97324
#        118649
#        136540
#        157856
#        173877
#        194160
#        208969
#        230860
#
# Disc length: 3387 seconds
#
# Revision: 0
# Processed by: cddbd v1.5.2PL0 Copyright (c) Steve Scherf et al.
# Submitted via: ExactAudioCopy v0.99pb4
#
DISCID=b50d390d
DTITLE=Border Band - Hard West [CD1] 
DYEAR=2005
DGENRE=Blues
TTITLE0=Sundown
TTITLE1=Day Job
TTITLE2=Boxcars n' Boneyards
TTITLE3=Meet Me In The Morning
TTITLE4=Jailbreak
TTITLE5=Same Ol' Song
TTITLE6=If Wishes Was Horses
TTITLE7=Dead End Road
TTITLE8=My Lady Been Gone
TTITLE9=Redheaded Woman
TTITLE10=Fishin' In The Wrong Hole
TTITLE11=Taco n' Wine
TTITLE12=Dakota Wind
EXTD=
EXTT0=
EXTT1=
EXTT2=
EXTT3=
EXTT4=
EXTT5=
EXTT6=
EXTT7=
EXTT8=
EXTT9=
EXTT10=
EXTT11=
EXTT12=
PLAYORDER=
